{
  "asset": {
    "generator": "Microsoft GLTF Exporter 2.8.3.41",
    "version": "2.0"
  },
  "accessors": [
    {
      "bufferView": 0,
      "componentType": 5126,
      "count": 4005,
      "type": "VEC3",
      "max": [
        46723.78515625,
        5442.87744140625,
        -0.00020625836623366922
      ],
      "min": [
        27421,
        -0.00003840327917714603,
        -22201.03125
      ]
    }
  ],
  "bufferViews": [
    {
      "buffer": 0,
      "byteOffset": 0,
      "byteLength": 48060,
      "target": 34962
    }
  ],
  "buffers": [
    {
      "uri": "HBH_model_data.bin",
      "byteLength": 48060
    }
  ],
  "materials": [
    {
      "pbrMetallicRoughness": {},
      "doubleSided": true,
      "extensions": {
        "KHR_materials_pbrSpecularGlossiness": {
          "diffuseFactor": [
            0.2195197343826294,
            0.2195197343826294,
            0.2195197343826294,
            1
          ],
          "specularFactor": [
            0,
            0,
            0
          ]
        }
      }
    }
  ],
  "meshes": [
    {
      "primitives": [
        {
          "attributes": {
            "POSITION": 0
          },
          "material": 0
        }
      ]
    }
  ],
  "nodes": [
    {
      "mesh": 0,
      "name": "Asset3DLoader.sceneRoot"
    }
  ],
  "scenes": [
    {
      "nodes": [
        0
      ]
    }
  ],
  "scene": 0,
  "extensionsUsed": [
    "KHR_materials_pbrSpecularGlossiness"
  ],
  "extensionsRequired": [
    "KHR_materials_pbrSpecularGlossiness"
  ]
}